<?xml version="1.0" encoding="UTF-8"?>
<svg version="1.1" xmlns="http://www.w3.org/2000/svg" width="172" height="172">
<path d="M0 0 C16.44891523 13.163963 29.64058213 32.59205129 32.76855469 53.80810547 C34.3535537 68.81878179 33.65706339 83.62787059 29 98 C28.67257813 99.03640625 28.34515625 100.0728125 28.0078125 101.140625 C20.1029861 122.72022407 2.49420945 138.978615 -17.87890625 148.71875 C-40.59266927 158.04304821 -65.47822279 157.35191645 -88.25 148.8125 C-107.37365849 140.24614887 -125.1022703 123.41482993 -132.86914062 103.80566406 C-141.37799615 80.59358301 -142.17417972 56.10599288 -132.1875 33.1875 C-121.78674476 12.17900932 -105.63431743 -4.69312453 -83.11230469 -12.66845703 C-54.65882068 -21.89720647 -24.06825185 -18.05935315 0 0 Z " fill="#050202" transform="translate(139,17)"/>
<path d="M0 0 C5.67505394 0.5092051 9.90403711 2.06865342 14.9375 4.6875 C15.64479248 5.05125732 16.35208496 5.41501465 17.08081055 5.78979492 C22.12693256 8.43549866 26.75721959 11.16418016 31 15 C31.85851562 15.76699219 32.71703125 16.53398437 33.6015625 17.32421875 C49.5349486 32.35778552 57.77175069 51.23635193 59.12890625 73.07421875 C59.68753812 93.22220805 52.82802204 112.11084575 39.625 127.25 C38.10034589 128.84972197 36.55870444 130.43343655 35 132 C34.26394531 132.77085937 33.52789062 133.54171875 32.76953125 134.3359375 C24.9505435 142.0108568 11.25348405 151 0 151 C-0.67099984 148.39688008 -1.33695338 145.79264602 -2 143.1875 C-2.19078125 142.44951172 -2.3815625 141.71152344 -2.578125 140.95117188 C-3.35262914 137.89464659 -4 135.16626522 -4 132 C-2.97261719 131.59910156 -1.94523437 131.19820312 -0.88671875 130.78515625 C15.60381907 124.12348189 26.74987176 114.41662998 34.4375 98.25 C40.56077612 82.54737727 39.62296629 65.32600994 33 50 C30.94212211 46.09003201 28.64824863 42.53297744 26 39 C25.52820313 38.34644531 25.05640625 37.69289062 24.5703125 37.01953125 C17.26226772 27.66771123 6.73319833 23.2221371 -4 19 C-2.89309248 12.59406714 -1.66054831 6.28636144 0 0 Z " fill="#A100FE" transform="translate(103,10)"/>
<path d="M0 0 C0.67099984 2.60311992 1.33695338 5.20735398 2 7.8125 C2.28617188 8.91948242 2.28617188 8.91948242 2.578125 10.04882812 C3.35262914 13.10535341 4 15.83373478 4 19 C2.96101563 19.4125 1.92203125 19.825 0.8515625 20.25 C-15.19233155 26.80666764 -26.89881583 35.86832267 -33.9375 52.3125 C-34.66880339 54.19187107 -35.35607906 56.08892541 -36 58 C-36.36609375 59.07121094 -36.7321875 60.14242187 -37.109375 61.24609375 C-38.19522894 65.82287286 -38.34351842 70.0635595 -38.3125 74.75 C-38.30686035 75.63816406 -38.3012207 76.52632813 -38.29541016 77.44140625 C-37.99695292 93.58764698 -31.24630088 107.44282576 -20 119 C-12.93193456 125.21894083 -4.66144848 128.59283078 4 132 C2.89309248 138.40593286 1.66054831 144.71363856 0 151 C-5.63810941 150.4874446 -9.86636474 148.96675468 -14.875 146.375 C-15.57898926 146.0145459 -16.28297852 145.6540918 -17.00830078 145.28271484 C-22.51593533 142.3923184 -27.39039637 139.20082746 -32 135 C-33.21042969 133.92685547 -33.21042969 133.92685547 -34.4453125 132.83203125 C-49.35933001 118.85299038 -57.68628891 100.36252193 -59 80 C-59.05414063 79.25363281 -59.10828125 78.50726563 -59.1640625 77.73828125 C-59.98423758 55.77995746 -51.17207865 35.77939926 -36.44091797 19.87329102 C-27.39244246 10.50601615 -13.48713874 0 0 0 Z " fill="#A100FE" transform="translate(68,10)"/>
<path d="M0 0 C0.68489502 -0.0103125 1.36979004 -0.020625 2.07543945 -0.03125 C8.36376471 0.07807257 12.29147206 1.82805046 16.75 6.1875 C19.15477982 9.76031573 19.68213186 12.18136442 19.9375 16.4375 C15.9775 16.4375 12.0175 16.4375 7.9375 16.4375 C7.2775 15.1175 6.6175 13.7975 5.9375 12.4375 C3.69237738 11.31493869 2.42293351 11.30336238 -0.0625 11.3125 C-0.76375 11.30992188 -1.465 11.30734375 -2.1875 11.3046875 C-4.15403775 11.32372764 -4.15403775 11.32372764 -6.0625 12.4375 C-6.0625 14.0875 -6.0625 15.7375 -6.0625 17.4375 C-2.28843211 19.57953853 1.21708457 20.8270933 5.4375 21.875 C12.08834296 23.61667258 17.34561424 26.3589241 20.9375 32.4375 C21.56100071 38.04900643 21.14134947 41.6317258 17.9375 46.4375 C11.84024758 52.60138906 6.0303961 52.77357092 -2.21508789 52.82910156 C-8.31123099 52.72847072 -12.62289833 51.89000749 -17.0625 47.4375 C-17.701875 46.839375 -18.34125 46.24125 -19 45.625 C-20.61664843 42.29660618 -20.75596338 39.11593942 -21.0625 35.4375 C-19.12690687 35.30245862 -17.188628 35.20548871 -15.25 35.125 C-14.17105469 35.06699219 -13.09210938 35.00898437 -11.98046875 34.94921875 C-9.0625 35.4375 -9.0625 35.4375 -7.30078125 37.89453125 C-6.89214844 38.73371094 -6.48351562 39.57289062 -6.0625 40.4375 C-3.03812661 41.9496867 -0.40008466 41.61013369 2.9375 41.4375 C5.29119807 40.55685073 5.29119807 40.55685073 6.9375 39.4375 C6.98917527 37.01482914 6.98917527 37.01482914 5.9375 34.4375 C2.13199963 32.29690604 -1.36509071 31.33612433 -5.625 30.5 C-11.23906102 29.32563009 -14.7193392 27.02808516 -18.4375 22.625 C-20.42159759 18.73311627 -20.73303192 16.75870574 -20.0625 12.4375 C-18.07185087 7.742739 -15.16928701 3.39068491 -10.484375 1.05859375 C-7.00766068 0.16698475 -3.5689244 0.04535567 0 0 Z " fill="#F6F6F6" transform="translate(109.0625,59.5625)"/>
<path d="M0 0 C0.68489502 -0.0103125 1.36979004 -0.020625 2.07543945 -0.03125 C8.36376471 0.07807257 12.29147206 1.82805046 16.75 6.1875 C19.15477982 9.76031573 19.68213186 12.18136442 19.9375 16.4375 C15.9775 16.4375 12.0175 16.4375 7.9375 16.4375 C7.2775 15.1175 6.6175 13.7975 5.9375 12.4375 C3.69237738 11.31493869 2.42293351 11.30336238 -0.0625 11.3125 C-0.76375 11.30992188 -1.465 11.30734375 -2.1875 11.3046875 C-4.15403775 11.32372764 -4.15403775 11.32372764 -6.0625 12.4375 C-6.0625 14.0875 -6.0625 15.7375 -6.0625 17.4375 C-2.28843211 19.57953853 1.21708457 20.8270933 5.4375 21.875 C11.30778585 23.39840298 15.98570351 25.65374635 19.9375 30.4375 C21.18016632 34.16549895 21.46652513 37.56532994 20.9375 41.4375 C18.19018663 46.72862204 14.65624267 50.53125244 8.9375 52.4375 C-9.66382391 53.72542549 -9.66382391 53.72542549 -15.71875 48.78515625 C-16.38390625 48.11806641 -16.38390625 48.11806641 -17.0625 47.4375 C-17.701875 46.839375 -18.34125 46.24125 -19 45.625 C-20.61664843 42.29660618 -20.75596338 39.11593942 -21.0625 35.4375 C-19.12690687 35.30245862 -17.188628 35.20548871 -15.25 35.125 C-14.17105469 35.06699219 -13.09210937 35.00898437 -11.98046875 34.94921875 C-9.0625 35.4375 -9.0625 35.4375 -7.30078125 37.89453125 C-6.89214844 38.73371094 -6.48351563 39.57289062 -6.0625 40.4375 C-3.03812661 41.9496867 -0.40008466 41.61013369 2.9375 41.4375 C5.29119807 40.55685073 5.29119807 40.55685073 6.9375 39.4375 C6.98917527 37.01482914 6.98917527 37.01482914 5.9375 34.4375 C2.13199963 32.29690604 -1.36509071 31.33612433 -5.625 30.5 C-11.23906102 29.32563009 -14.7193392 27.02808516 -18.4375 22.625 C-20.42159759 18.73311627 -20.73303192 16.75870574 -20.0625 12.4375 C-18.07185087 7.742739 -15.16928701 3.39068491 -10.484375 1.05859375 C-7.00766068 0.16698475 -3.5689244 0.04535567 0 0 Z " fill="#F6F6F6" transform="translate(63.0625,59.5625)"/>
<path d="M0 0 C0.66 0.33 1.32 0.66 2 1 C-0.31 3.31 -2.62 5.62 -5 8 C-5.33 7.34 -5.66 6.68 -6 6 C-4 4 -2 2 0 0 Z " fill="#E0E0E0" transform="translate(97,62)"/>
<path d="M0 0 C0.66 0.33 1.32 0.66 2 1 C-0.31 3.31 -2.62 5.62 -5 8 C-5.33 7.34 -5.66 6.68 -6 6 C-4 4 -2 2 0 0 Z " fill="#E0E0E0" transform="translate(51,62)"/>
</svg>
