<?xml version="1.0" encoding="UTF-8"?>
<!DOCTYPE svg PUBLIC "-//W3C//DTD SVG 1.1//EN" "http://www.w3.org/Graphics/SVG/1.1/DTD/svg11.dtd">
<svg xmlns="http://www.w3.org/2000/svg" version="1.1" width="172px" height="172px" style="shape-rendering:geometricPrecision; text-rendering:geometricPrecision; image-rendering:optimizeQuality; fill-rule:evenodd; clip-rule:evenodd" xmlns:xlink="http://www.w3.org/1999/xlink">
<g><path style="opacity:0.977" fill="#080302" d="M 73.5,-0.5 C 81.5,-0.5 89.5,-0.5 97.5,-0.5C 138.023,7.6894 162.69,32.0227 171.5,72.5C 171.5,80.8333 171.5,89.1667 171.5,97.5C 163.167,138.5 138.5,163.167 97.5,171.5C 89.5,171.5 81.5,171.5 73.5,171.5C 32.948,163.281 8.28138,138.948 -0.5,98.5C -0.5,89.8333 -0.5,81.1667 -0.5,72.5C 8.30819,32.0248 32.9749,7.69143 73.5,-0.5 Z"/></g>
<g><path style="opacity:1" fill="#fe00f1" d="M 63.5,9.5 C 64.8333,9.5 66.1667,9.5 67.5,9.5C 68.6749,15.8663 70.0082,22.1996 71.5,28.5C 44.4221,37.2589 30.0888,55.9256 28.5,84.5C 29.6124,113.597 43.9457,132.597 71.5,141.5C 70.0082,147.8 68.6749,154.134 67.5,160.5C 42.0771,153.583 24.2438,137.916 14,113.5C 2.14634,75.7333 11.6463,44.5667 42.5,20C 49.3132,15.9267 56.3132,12.4267 63.5,9.5 Z"/></g>
<g><path style="opacity:1" fill="#fe00f1" d="M 102.5,9.5 C 127.923,16.4169 145.756,32.0836 156,56.5C 167.853,94.2675 158.353,125.434 127.5,150C 119.839,155.165 111.506,158.665 102.5,160.5C 101.325,154.134 99.9918,147.8 98.5,141.5C 125.818,132.668 140.151,113.835 141.5,85C 140.136,56.1537 125.803,37.3204 98.5,28.5C 99.9918,22.1996 101.325,15.8663 102.5,9.5 Z"/></g>
<g><path style="opacity:1" fill="#f1f1f1" d="M 101.5,61.5 C 108.877,60.6893 115.877,61.856 122.5,65C 126.945,68.11 128.445,72.2767 127,77.5C 124.281,78.4438 121.448,78.7771 118.5,78.5C 118.403,72.0747 115.07,69.0747 108.5,69.5C 102.117,68.7324 99.2833,71.3991 100,77.5C 106.334,80.0449 112.834,82.2115 119.5,84C 130.15,88.99 132.317,96.49 126,106.5C 119.17,112.158 111.336,113.991 102.5,112C 92.974,109.507 88.6407,103.507 89.5,94C 94.9934,92.2895 98.1601,94.1229 99,99.5C 104.897,104.843 111.397,105.676 118.5,102C 121.311,98.7065 120.978,95.7065 117.5,93C 110.73,91.3081 104.064,89.3081 97.5,87C 88.6202,79.7364 88.2868,72.0697 96.5,64C 98.3146,63.2432 99.9812,62.4098 101.5,61.5 Z"/></g>
<g><path style="opacity:1" fill="#f8f8f8" d="M 43.5,62.5 C 46.1667,62.5 48.8333,62.5 51.5,62.5C 51.1721,73.6794 51.5054,84.6794 52.5,95.5C 55.3196,103.818 60.9863,106.318 69.5,103C 72.1806,100.806 73.6806,97.9727 74,94.5C 74.4998,83.8385 74.6665,73.1719 74.5,62.5C 77.1667,62.5 79.8333,62.5 82.5,62.5C 82.6661,75.8513 82.3327,89.1846 81.5,102.5C 79.2043,107.611 75.2043,110.777 69.5,112C 61.586,113.683 54.4194,112.183 48,107.5C 45.8543,104.874 44.521,101.874 44,98.5C 43.5001,86.5046 43.3335,74.5046 43.5,62.5 Z"/></g>
<g><path style="opacity:1" fill="#b4b4b4" d="M 43.5,62.5 C 46.2869,61.5233 49.2869,61.19 52.5,61.5C 52.5,72.8333 52.5,84.1667 52.5,95.5C 51.5054,84.6794 51.1721,73.6794 51.5,62.5C 48.8333,62.5 46.1667,62.5 43.5,62.5 Z"/></g>
<g><path style="opacity:1" fill="#a8a8a8" d="M 74.5,62.5 C 77.2869,61.5233 80.2869,61.19 83.5,61.5C 83.6665,73.5046 83.4999,85.5046 83,97.5C 82.8019,99.3817 82.3019,101.048 81.5,102.5C 82.3327,89.1846 82.6661,75.8513 82.5,62.5C 79.8333,62.5 77.1667,62.5 74.5,62.5 Z"/></g>
</svg>
